0
SECTION
2
HEADER
9
$INSUNITS
70
4
9
$ACADVER
1
AC1014
9
$HANDSEED
5
FFFF
0
ENDSEC
0
SECTION
2
TABLES
0
TABLE
2
VPORT
5
8
100
AcDbSymbolTable
0
ENDTAB
0
TABLE
2
LTYPE
5
5
100
AcDbSymbolTable
0
LTYPE
5
14
100
AcDbSymbolTableRecord
100
AcDbLinetypeTableRecord
2
BYBLOCK
70
0
0
LTYPE
5
15
100
AcDbSymbolTableRecord
100
AcDbLinetypeTableRecord
2
BYLAYER
70
0
0
ENDTAB
0
TABLE
2
LAYER
5
2
100
AcDbSymbolTable
70
2
0
LAYER
5
50
100
AcDbSymbolTableRecord
100
AcDbLayerTableRecord
2
0
70
0
6
CONTINUOUS
0
ENDTAB
0
TABLE
2
STYLE
5
3
100
AcDbSymbolTable
70
1
0
STYLE
5
11
100
AcDbSymbolTableRecord
100
AcDbTextStyleTableRecord
2
STANDARD
70
0
0
ENDTAB
0
TABLE
2
VIEW
5
6
100
AcDbSymbolTable
70
0
0
ENDTAB
0
TABLE
2
UCS
5
7
100
AcDbSymbolTable
70
0
0
ENDTAB
0
TABLE
2
APPID
5
9
100
AcDbSymbolTable
70
2
0
APPID
5
12
100
AcDbSymbolTableRecord
100
AcDbRegAppTableRecord
2
ACAD
70
0
0
ENDTAB
0
TABLE
2
DIMSTYLE
5
A
100
AcDbSymbolTable
70
1
0
ENDTAB
0
TABLE
2
BLOCK_RECORD
5
1
100
AcDbSymbolTable
70
1
0
BLOCK_RECORD
5
1F
100
AcDbSymbolTableRecord
100
AcDbBlockTableRecord
2
*MODEL_SPACE
0
BLOCK_RECORD
5
1B
100
AcDbSymbolTableRecord
100
AcDbBlockTableRecord
2
*PAPER_SPACE
0
ENDTAB
0
ENDSEC
0
SECTION
2
BLOCKS
0
BLOCK
5
20
100
AcDbEntity
100
AcDbBlockBegin
2
*MODEL_SPACE
0
ENDBLK
5
21
100
AcDbEntity
100
AcDbBlockEnd
0
BLOCK
5
1C
100
AcDbEntity
100
AcDbBlockBegin
2
*PAPER_SPACE
0
ENDBLK
5
1D
100
AcDbEntity
100
AcDbBlockEnd
0
ENDSEC
0
SECTION
2
ENTITIES
0
LWPOLYLINE
5
100
100
AcDbEntity
8
0
100
AcDbPolyline
90
16
70
1
43
0.0
10
-8.0000000000000195
20
0
10
-97.999999999999972
20
0
42
0.41421356237309503
10
-100
20
-2.0000000000000355
10
-100
20
-84.500000000030738
42
0.41421356237309503
10
-98.00000000002926
20
-86.500000000001478
10
-20.916833463158397
20
-86.500000000001478
42
-0.06492335142286168
10
-20.40396849493689
20
-86.566875709022995
10
-11.484722917322987
20
-88.933184290976129
42
0.064923351422861625
10
-10.971857949101945
20
-89.000059999997575
10
-1.999999999999994
20
-89.000059999999962
42
0.41421356237309592
10
4.9960036108132044e-15
20
-87.000059999999962
10
0
20
-66.442703922419412
42
0.33945464590602431
10
-1.4823645916079213
20
-64.510851551253666
10
-4.5176354083920796
20
-63.697557703195038
42
-0.33945464590602431
10
-6.0000000000000231
20
-61.765705332029263
10
-6.0000000000000187
20
-2
42
0.41421356237309498
0
LINE
5
101
100
AcDbEntity
8
0
100
AcDbLine
10
-95.90000000000002
20
-18.928403576549702
30
0
11
-100
21
-18.928403576549705
31
0
0
LINE
5
102
100
AcDbEntity
8
0
100
AcDbLine
10
-10.1
20
-18.124624743703528
30
0
11
-6.000000000000016
21
-18.124624743703531
31
0
0
LINE
5
103
100
AcDbEntity
8
0
100
AcDbLine
10
-2.500000037252903
20
0
30
0
11
0
21
0
31
0
0
LINE
5
104
100
AcDbEntity
8
0
100
AcDbLine
10
0
20
0
30
0
11
0
21
-3.0000000447034836
31
0
0
LINE
5
105
100
AcDbEntity
8
0
100
AcDbLine
10
-22.100000000000005
20
-83.400000000000006
30
0
11
-22.100000000000009
21
-86.5
31
0
0
LINE
5
106
100
AcDbEntity
8
0
100
AcDbLine
10
-18.933700000000002
20
-83.74969999999999
30
0
11
-19.728640700750869
21
-86.746042651014676
31
0
0
LINE
5
107
100
AcDbEntity
8
0
100
AcDbLine
10
-1.5492600000000001
20
-74.121000000000009
30
0
11
1.8518173106052416e-15
21
-74.121000000000009
31
0
0
LINE
5
108
100
AcDbEntity
8
0
100
AcDbLine
10
-5.1209600000000002
20
-87.450800000000001
30
0
11
-5.1209599999999931
21
-89.000059999999976
31
0
0
LINE
5
109
100
AcDbEntity
8
0
100
AcDbLine
10
-95.90000000000002
20
-14.550000000000001
30
0
11
-95.90000000000002
21
-28.350000000000005
31
0
0
LINE
5
110
100
AcDbEntity
8
0
100
AcDbLine
10
-10.1
20
-28.400000000000002
30
0
11
-10.1
21
-14.600000000000001
31
0
0
LINE
5
111
100
AcDbEntity
8
0
100
AcDbLine
10
-22.100000000000005
20
-83.400000000000006
30
0
11
-36.899999999999999
21
-83.400000000000006
31
0
0
LINE
5
112
100
AcDbEntity
8
0
100
AcDbLine
10
-4.6379999999999999
20
-87.580200000000005
30
0
11
-18.933700000000002
21
-83.74969999999999
31
0
0
LINE
5
113
100
AcDbEntity
8
0
100
AcDbLine
10
-5.1209600000000002
20
-87.450800000000001
30
0
11
-1.5492600000000001
21
-74.121000000000009
31
0
0
LINE
5
114
100
AcDbEntity
8
0
100
AcDbLine
10
-15.362
20
-70.419900000000013
30
0
11
-1.0663
21
-74.250400000000013
31
0
0
LINE
5
115
100
AcDbEntity
8
0
100
AcDbLine
10
-5.730355819349886
20
-73.000676949291091
30
0
11
-3.3233511703267977
21
-64.017563423370262
31
0
0
CIRCLE
5
116
100
AcDbEntity
8
0
100
AcDbCircle
10
-3.5999999999999952
20
-67.670428867644645
30
0
40
1.1000000000000032
210
0
220
0
230
1
0
CIRCLE
5
117
100
AcDbEntity
8
0
100
AcDbCircle
10
-70
20
-82.900000000000006
30
0
40
1.0999999999999943
210
0
220
0
230
1
0
CIRCLE
5
118
100
AcDbEntity
8
0
100
AcDbCircle
10
-84
20
-3.6000000000000005
30
0
40
1.0999999999999999
210
0
220
0
230
1
0
CIRCLE
5
119
100
AcDbEntity
8
0
100
AcDbCircle
10
-26.000000000000018
20
-3.6000000000000005
30
0
40
1.0999999999999999
210
0
220
0
230
1
0
ENDSEC
0
SECTION
2
OBJECTS
0
DICTIONARY
5
C
100
AcDbDictionary
3
ACAD_GROUP
350
D
3
ACAD_MLINESTYLE
350
17
0
DICTIONARY
5
D
100
AcDbDictionary
0
DICTIONARY
5
1A
330
C
100
AcDbDictionary
0
DICTIONARY
5
17
100
AcDbDictionary
0
ENDSEC
0
EOF
